<svg data-v-fde0c5aa="" xmlns="http://www.w3.org/2000/svg" viewBox="0 0 300 300" class="iconLeft"><!----><defs data-v-fde0c5aa=""><linearGradient data-v-fde0c5aa="" gradientTransform="rotate(25)" id="4cb45a5f-1335-4794-a6d2-9706855d6bc2" x1="0%" y1="0%" x2="100%" y2="0%"><stop data-v-fde0c5aa="" offset="0%" stop-color="#E98C00" stop-opacity="1"></stop><stop data-v-fde0c5aa="" offset="100%" stop-color="#8F5BFE" stop-opacity="1"></stop></linearGradient></defs><rect data-v-fde0c5aa="" fill="url(#4cb45a5f-1335-4794-a6d2-9706855d6bc2)" x="0" y="0" width="300px" height="300px" class="logo-background-square"></rect><defs data-v-fde0c5aa=""><!----></defs><g data-v-fde0c5aa="" id="d52fb805-218f-4157-8378-bd5de4c77d58" fill="#ffffff" transform="matrix(2.9973812103271484,0,0,2.9973812103271484,89.86865839313104,131.83587075771936)"><path d="M7.04 7.92C7.04 7.14 6.58 6.40 5.89 6.02C6.58 5.63 7 4.93 7 4.17C7 2.77 5.96 1.86 4.33 1.86L0.81 1.86L1.12 2.91L1.12 10.26L4.33 10.26C6.08 10.26 7.04 9.30 7.04 7.92ZM5.63 4.23C5.63 5.03 5.15 5.47 4.33 5.47L2.44 5.47L2.44 2.98L4.33 2.98C5.15 2.98 5.63 3.43 5.63 4.23ZM5.67 7.87C5.67 8.69 5.17 9.14 4.33 9.14L2.44 9.14L2.44 6.59L4.33 6.59C5.17 6.59 5.67 7.04 5.67 7.87ZM14.35 10.26L14.35 8.12L13.90 8.12L13.38 9.11L10.22 9.11L10.22 1.86L8.85 1.86L8.85 10.26ZM22.25 10.26L19.64 6.80C20.90 6.59 21.67 5.77 21.67 4.41C21.67 2.77 20.59 1.86 18.84 1.86L15.44 1.86L15.75 2.91L15.75 10.26L17.07 10.26L17.07 6.94L18.20 6.94L20.64 10.26ZM18.84 3.01C19.77 3.01 20.30 3.50 20.30 4.41C20.30 5.32 19.77 5.81 18.84 5.81L17.07 5.81L17.07 3.01ZM29.75 10.05L29.75 6.62L28.41 6.62L28.41 9.11C28.06 9.18 27.69 9.23 27.36 9.23C25.33 9.23 24.26 8.16 24.26 6.06C24.26 3.96 25.33 2.90 27.36 2.90C27.79 2.90 28.27 2.95 28.73 3.04L29.30 4.00L29.75 4.00L29.75 2.07C29.08 1.86 28.08 1.69 27.36 1.69C24.44 1.69 22.82 3.39 22.82 6.06C22.82 8.74 24.44 10.43 27.36 10.43C28.08 10.43 29.08 10.26 29.75 10.05ZM37.84 10.26L37.84 9.14C37.65 9.21 37.42 9.28 37.18 9.28C36.86 9.28 36.72 9.13 36.72 8.81L36.72 6.02C36.72 4.44 35.60 3.57 33.80 3.57C33.21 3.57 32.48 3.70 31.82 3.88L31.82 5.80L32.27 5.80L32.79 4.82C33.14 4.75 33.50 4.70 33.80 4.70C34.87 4.70 35.41 5.17 35.41 6.02L35.41 6.40L33.64 6.40C32.00 6.40 31.15 7.24 31.15 8.34C31.15 9.53 32.12 10.43 33.87 10.43C34.54 10.43 35.20 10.25 35.73 9.98C35.97 10.26 36.39 10.43 36.85 10.43C37.20 10.43 37.58 10.35 37.84 10.26ZM35.41 9.02C34.94 9.24 34.40 9.38 33.87 9.38C32.94 9.38 32.48 8.99 32.48 8.34C32.48 7.78 32.83 7.43 33.64 7.43L35.41 7.43ZM49.85 10.26L49.85 9.80L48.83 9.28L48.83 6.02C48.83 4.51 47.80 3.57 46.10 3.57C45.16 3.57 44.45 3.91 44.10 4.45C43.71 3.91 42.95 3.57 41.89 3.57C41.03 3.57 40.00 3.74 39.14 3.99L38.92 4.05L39.23 5.08L39.23 10.26L40.54 10.26L40.54 4.89C40.96 4.77 41.44 4.70 41.89 4.70C42.87 4.70 43.37 5.15 43.37 6.02L43.37 10.26L44.69 10.26L44.69 6.02C44.69 5.18 45.19 4.70 46.10 4.70C47.03 4.70 47.52 5.18 47.52 6.02L47.52 10.26ZM53.73 3.57C51.86 3.57 50.62 4.86 50.62 7C50.62 9.21 52.01 10.43 54.26 10.43C54.88 10.43 55.66 10.29 56.22 10.08L56.22 8.95C55.65 9.14 54.91 9.28 54.26 9.28C52.99 9.28 52.11 8.74 52.00 7.43L56.74 7.43C56.76 7.29 56.76 7.15 56.76 7C56.76 4.86 55.62 3.57 53.73 3.57ZM55.45 6.36L52.01 6.36C52.14 5.25 52.79 4.65 53.73 4.65C54.63 4.65 55.31 5.22 55.45 6.36Z"></path></g><defs data-v-fde0c5aa=""><!----></defs><g data-v-fde0c5aa="" id="d2d0491f-80b4-4597-a208-4fa825482d04" stroke="none" fill="#ffffff" transform="matrix(0.4395979940891266,0,0,0.4395979940891266,37.66793267790743,128.02010013841434)"><path d="M93.308 14.563H91.61v-3.087h-3.086V8.391h-3.086V5.305H57.769v3.086h-3.087v3.085h-3.085v3.086H48.405v-3.087h-3.086V8.39h-3.086v-.085h.002l.009-2.98h-27.66l-.02 3.066h-3.085v3.084H8.375v3.088H5.305v36.915h1.264v.004h1.822V54.564h3.086v3.091h3.086v3.084h3.086V63.834h3.087v3.085h3.085v3.084h3.087v3.09h3.086V76.174h3.087V79.266h3.085V82.352h3.086V85.438h3.087V88.524h3.086V91.61h3.086v3.085h2.979V91.61H54.577V88.525h3.086V85.44h3.085v-3.085h3.087V79.27h3.086v-3.091h3.087v-3.082h3.085v-3.089h3.088V66.92h3.085v-3.084h3.087v-3.085h3.086v-3.086h3.086v-3.091h3.086v-3.082h1.166v-.004h1.92V14.573h-1.389zM26.8 11.371h-9.258V14.457h-3.086v3.086H11.37v12.345H8.284V17.542h.857v-.004h2.213v.004h.016v-3.069h-.016v-.021h.122v.004h2.979v-3.085h3.086V8.305H26.8v3.066z"></path></g><!----></svg>